<?xml version="1.0" standalone="no"?>
<!DOCTYPE svg PUBLIC "-//W3C//DTD SVG 20010904//EN"
 "http://www.w3.org/TR/2001/REC-SVG-20010904/DTD/svg10.dtd">
<svg version="1.0" xmlns="http://www.w3.org/2000/svg"
 width="1266.000000pt" height="1266.000000pt" viewBox="0 0 1266.000000 1266.000000"
 preserveAspectRatio="xMidYMid meet">
<metadata>
Created by potrace 1.11, written by Peter Selinger 2001-2013
</metadata>
<g transform="translate(0.000000,1266.000000) scale(0.100000,-0.100000)"
fill="#000000" stroke="none">
<path d="M54 12306 c-17 -8 -34 -21 -38 -31 -3 -9 -6 -586 -6 -1281 0 -1245 0
-1264 20 -1284 44 -44 109 -31 130 26 6 16 10 487 10 1225 l0 1199 245 0 245
0 0 -1140 0 -1141 25 -24 24 -25 804 0 804 0 21 23 22 23 2 1140 3 1139 245 0
245 0 5 -1217 c5 -1138 6 -1218 22 -1235 23 -23 81 -22 108 2 20 18 20 21 20
1290 0 1238 -1 1273 -19 1296 l-19 24 -329 3 c-180 2 -343 0 -361 -3 -18 -3
-42 -15 -53 -26 -19 -19 -19 -43 -19 -1159 l0 -1140 -700 0 -700 0 0 1143 0
1144 -21 19 c-20 18 -43 19 -363 21 -271 2 -347 0 -372 -11z"/>
<path d="M5130 12310 c-690 -52 -1243 -535 -1387 -1210 -25 -117 -25 -460 0
-569 61 -267 162 -445 377 -661 150 -151 287 -259 550 -435 293 -195 500 -315
545 -315 71 0 100 78 48 127 -16 14 -104 70 -198 125 -561 328 -934 650 -1076
931 -80 157 -126 379 -116 562 19 355 156 655 410 902 197 191 413 305 690
365 148 31 419 31 564 0 164 -36 338 -107 478 -197 84 -54 226 -179 294 -259
194 -229 298 -472 336 -784 l7 -52 -268 2 -269 3 -8 55 c-34 236 -171 454
-364 581 -149 97 -285 134 -488 133 -116 -1 -156 -6 -237 -27 -411 -109 -660
-465 -608 -871 24 -189 82 -301 239 -456 108 -107 197 -175 413 -312 133 -86
171 -96 208 -56 27 29 26 79 -2 105 -13 11 -81 57 -151 101 -342 218 -496 381
-542 573 -32 139 -11 308 56 440 49 98 171 215 279 267 129 64 192 77 355 77
119 0 151 -4 215 -23 119 -37 187 -79 275 -167 123 -122 184 -256 205 -450 15
-144 -13 -135 420 -135 246 0 367 4 384 11 43 20 50 54 37 199 -47 529 -345
986 -811 1243 -246 136 -556 199 -860 177z"/>
<path d="M7370 12313 c-8 -3 -23 -12 -32 -21 -17 -14 -18 -45 -18 -377 l0
-362 23 -21 23 -22 522 0 522 0 0 -2353 0 -2354 23 -21 c21 -20 34 -22 138
-22 102 0 118 2 137 20 15 14 22 33 22 59 0 55 -26 74 -106 79 l-64 4 0 2348
c0 2297 0 2348 -19 2371 l-19 24 -526 3 -526 3 0 244 0 245 608 0 c598 0 609
0 630 20 30 28 30 90 1 116 -20 18 -47 19 -673 21 -358 1 -658 -1 -666 -4z"/>
<path d="M8963 12313 c-53 -10 -71 -93 -30 -131 l23 -22 602 0 602 0 0 -245 0
-244 -521 -3 -521 -3 -24 -28 -24 -28 0 -2343 0 -2344 -61 -4 c-49 -4 -66 -9
-80 -27 -26 -32 -24 -82 4 -109 21 -20 34 -22 136 -22 106 0 113 1 136 25 l25
24 0 2351 0 2350 520 0 521 0 24 25 25 24 0 353 c-1 380 0 377 -54 398 -26 10
-1252 13 -1303 3z"/>
<path d="M5430 9840 c-28 -28 -26 -81 3 -106 12 -11 83 -55 157 -98 187 -108
454 -287 585 -393 138 -111 282 -254 363 -362 230 -306 289 -715 161 -1119
-211 -663 -892 -1069 -1589 -946 -513 90 -933 458 -1099 961 -39 118 -71 272
-71 345 l0 38 270 0 269 0 7 -37 c36 -215 107 -363 238 -500 240 -253 600
-335 946 -215 342 119 550 410 550 772 0 291 -112 491 -399 709 -159 121 -303
211 -337 211 -46 0 -76 -34 -72 -79 3 -40 6 -42 209 -181 138 -94 319 -264
363 -342 67 -115 95 -266 76 -407 -38 -287 -245 -500 -547 -563 -445 -92 -832
203 -878 670 -12 120 18 112 -430 112 l-382 0 -23 -25 c-22 -24 -23 -29 -17
-143 36 -709 536 -1305 1232 -1468 111 -26 136 -28 330 -29 180 0 226 3 322
23 626 127 1090 586 1224 1212 31 143 34 441 5 570 -110 504 -458 875 -1254
1338 -134 78 -176 88 -212 52z"/>
<path d="M32 9487 l-22 -23 0 -1328 0 -1327 25 -24 24 -25 354 0 c342 0 354 1
375 20 l22 21 0 1189 0 1190 700 0 700 0 0 -1188 0 -1189 23 -21 c23 -22 28
-22 378 -22 l356 0 21 23 22 23 0 1332 c0 1319 0 1332 -20 1352 -12 12 -33 20
-55 20 -22 0 -43 -8 -55 -20 -20 -20 -20 -33 -20 -1295 l0 -1275 -250 0 -250
0 0 1188 0 1189 -21 19 c-20 18 -49 19 -831 19 l-810 0 -19 -24 c-18 -23 -19
-56 -19 -1207 l0 -1184 -245 0 -245 0 -2 1274 c-3 1237 -4 1275 -22 1295 -27
30 -85 28 -114 -2z"/>
<path d="M31 5884 c-21 -26 -21 -34 -21 -663 0 -627 0 -638 20 -659 28 -30 90
-30 116 -1 18 20 19 47 22 610 l2 589 243 -2 242 -3 5 -2040 c6 -2242 1 -2060
65 -2230 87 -232 278 -410 519 -484 121 -37 186 -20 186 50 0 43 -29 68 -105
89 -125 35 -211 85 -300 174 -128 127 -185 251 -204 445 -7 69 -11 766 -11
2107 0 1991 0 2004 -20 2024 -19 19 -33 20 -379 20 l-360 0 -20 -26z"/>
<path d="M2232 5887 l-22 -23 -2 -2079 -3 -2080 -22 -76 c-71 -251 -240 -421
-484 -489 -82 -22 -96 -32 -105 -75 -4 -23 0 -38 17 -59 21 -27 26 -28 83 -23
120 9 301 101 414 210 97 93 182 241 224 392 l23 80 5 2045 5 2045 245 0 245
0 5 -593 c5 -573 6 -594 24 -608 29 -21 82 -18 106 6 20 20 20 33 20 665 l0
644 -22 21 c-21 19 -33 20 -378 20 l-357 0 -21 -23z"/>
<path d="M3782 5887 l-22 -23 0 -1280 c0 -1275 0 -1280 20 -1302 24 -26 76
-29 106 -8 19 14 19 41 24 1248 l5 1233 1345 0 1345 0 0 -245 0 -245 -1083 -5
c-1058 -5 -1084 -5 -1098 -24 -12 -17 -14 -155 -14 -893 0 -860 0 -873 20
-893 20 -20 33 -20 579 -20 l559 0 4 -64 c5 -80 24 -106 79 -106 29 0 42 6 58
26 18 23 21 41 21 134 0 93 -3 111 -21 134 l-20 26 -562 2 -562 3 0 760 0 760
1083 5 c1058 5 1084 5 1098 24 11 16 14 84 14 376 l0 357 -23 21 -23 22 -1455
0 -1456 0 -21 -23z"/>
<path d="M9520 5890 c-13 -13 -20 -33 -20 -57 0 -37 24 -62 768 -805 760 -761
768 -768 807 -768 40 0 47 7 807 768 838 838 798 791 747 856 l-20 26 -699 0
c-650 0 -699 -1 -719 -17 -32 -27 -37 -73 -11 -106 l21 -27 592 0 592 0 -655
-655 -655 -655 -653 652 -652 653 595 5 c579 5 595 5 609 25 22 28 20 68 -5
99 l-20 26 -705 0 c-691 0 -704 0 -724 -20z"/>
<path d="M35 4345 l-25 -24 0 -1293 c0 -821 4 -1326 10 -1383 31 -268 108
-488 242 -690 71 -108 260 -295 372 -369 332 -218 729 -296 1151 -226 213 36
415 117 597 239 314 211 513 513 601 910 21 95 21 115 24 1458 l4 1361 -27 21
c-34 26 -64 27 -97 1 l-26 -21 -4 -1332 c-4 -1458 -1 -1383 -63 -1587 -143
-468 -496 -781 -1004 -891 -151 -33 -437 -33 -590 0 -528 113 -879 463 -1003
996 -21 88 -21 116 -27 1448 l-5 1359 -28 24 c-36 31 -71 31 -102 -1z"/>
<path d="M3803 3080 c-12 -5 -26 -18 -32 -29 -8 -14 -11 -424 -11 -1335 0
-1303 0 -1316 20 -1336 20 -20 33 -20 1480 -20 1447 0 1460 0 1480 20 19 19
20 33 20 378 l0 359 -23 21 -23 22 -1075 2 -1074 3 0 805 0 805 562 3 562 2
20 26 c18 23 21 41 21 128 0 88 -3 105 -20 123 -27 29 -56 37 -89 23 -35 -14
-51 -47 -51 -105 l0 -45 -560 0 c-547 0 -560 0 -580 -20 -20 -20 -20 -33 -20
-938 0 -777 2 -921 14 -938 14 -19 40 -19 1098 -24 l1083 -5 0 -245 0 -245
-1345 0 -1345 0 -3 1267 -2 1267 -26 20 c-29 23 -46 25 -81 11z"/>
</g>
</svg>
